<svg aria-hidden="true" style="position: absolute; width: 0; height: 0; overflow: hidden;" version="1.1" xmlns="http://www.w3.org/2000/svg" xmlns:xlink="http://www.w3.org/1999/xlink">
<defs>
<symbol id="icon-facebook" viewBox="0 0 32 32">
<path d="M18.667 12.4v3.867h3.467c0.267 0 0.4 0.267 0.4 0.533l-0.533 2.533c0 0.133-0.267 0.267-0.4 0.267h-2.933v9.733h-4v-9.6h-2.267c-0.267 0-0.4-0.133-0.4-0.4v-2.533c0-0.267 0.133-0.4 0.4-0.4h2.267v-4.4c0-2.267 1.733-4 4-4h3.6c0.267 0 0.4 0.133 0.4 0.4v3.2c0 0.267-0.133 0.4-0.4 0.4h-3.2c-0.267 0-0.4 0.133-0.4 0.4z"></path>
<path fill="none" stroke=" #ffffff" style="stroke: var(--color1,  #ffffff)" stroke-linejoin="round" stroke-linecap="round" stroke-miterlimit="4" stroke-width="2" d="M20 29.333h-8c-6.667 0-9.333-2.667-9.333-9.333v-8c0-6.667 2.667-9.333 9.333-9.333h8c6.667 0 9.333 2.667 9.333 9.333v8c0 6.667-2.667 9.333-9.333 9.333z"></path>
</symbol>
<symbol id="icon-instagram" viewBox="0 0 32 32">
<path stroke-linejoin="round" stroke-linecap="round" stroke-miterlimit="4" stroke-width="2" d="M12 29.333h8c6.667 0 9.333-2.667 9.333-9.333v-8c0-6.667-2.667-9.333-9.333-9.333h-8c-6.667 0-9.333 2.667-9.333 9.333v8c0 6.667 2.667 9.333 9.333 9.333z"></path>
<path stroke-linejoin="round" stroke-linecap="round" stroke-miterlimit="4" stroke-width="2" d="M16 20.667c2.577 0 4.667-2.089 4.667-4.667s-2.089-4.667-4.667-4.667v0c-2.577 0-4.667 2.089-4.667 4.667s2.089 4.667 4.667 4.667v0z"></path>
<path stroke-linejoin="round" stroke-linecap="round" stroke-miterlimit="4" stroke-width="2.6667" d="M23.515 9.333h0.016"></path>
</symbol>
<symbol id="icon-arrow-right" viewBox="0 0 32 32">
<path stroke-linejoin="round" stroke-linecap="round" stroke-miterlimit="10" stroke-width="2" d="M7.906 12.76l8.093-8.093 8.093 8.093"></path>
<path stroke-linejoin="round" stroke-linecap="round" stroke-miterlimit="10" stroke-width="2" d="M16 27.333v-22.44"></path>
</symbol>
</defs>
</svg>
